# xmcd
#
# Track frame offsets:
#	150
#	16060
#	31180
#	47307
#	59800
#	71030
#	83857
#	98375
#	110007
#	125515
#	138942
#	151392
#
# Disc length: 2236 seconds
#
# Revision: 0
# Processed by: cddbd v1.4PL0 Copyright (c) Steve Scherf et al.
# Submitted via: dBpowerAMP V4.0
#
DISCID=9508ba0c
DTITLE=Wolverines - Gonna Ride All Night Long
DYEAR=1900
DGENRE=Country
TTITLE0=Gonna Ride All Night Long
TTITLE1=Rhythm Of The Country Band
TTITLE2=Howl At The Moon
TTITLE3=Warm Blooded Woman
TTITLE4=I'll Never Get Over You
TTITLE5=W.O.L.V.E.R.I.N.E.S.
TTITLE6=A Piece Of The Action
TTITLE7=Crocodile Tears
TTITLE8=Singin' My Song For You
TTITLE9=Attitude
TTITLE10=Hip Square Dance
TTITLE11=Saddle Up
EXTD=
EXTT0=
EXTT1=
EXTT2=
EXTT3=
EXTT4=
EXTT5=
EXTT6=
EXTT7=
EXTT8=
EXTT9=
EXTT10=
EXTT11=
PLAYORDER=
